<svg width="14" height="15" viewBox="0 0 14 15" fill="none" xmlns="http://www.w3.org/2000/svg">
<path d="M6.99996 1.36942C3.77996 1.36942 1.16663 3.98275 1.16663 7.20275C1.16663 10.4227 3.77996 13.0361 6.99996 13.0361C10.22 13.0361 12.8333 10.4227 12.8333 7.20275C12.8333 3.98275 10.22 1.36942 6.99996 1.36942ZM9.35079 7.51192L7.60079 9.26192C7.51329 9.34942 7.40246 9.39025 7.29163 9.39025C7.18079 9.39025 7.06996 9.34942 6.98246 9.26192C6.81329 9.09275 6.81329 8.81275 6.98246 8.64358L7.98579 7.64025H4.95829C4.71913 7.64025 4.52079 7.44192 4.52079 7.20275C4.52079 6.96358 4.71913 6.76525 4.95829 6.76525H7.98579L6.98246 5.76192C6.81329 5.59275 6.81329 5.31275 6.98246 5.14358C7.15163 4.97442 7.43163 4.97442 7.60079 5.14358L9.35079 6.89358C9.51996 7.06275 9.51996 7.34275 9.35079 7.51192Z" fill="#FF6B00"/>
</svg>
