<svg width="14" height="15" viewBox="0 0 14 15" fill="none" xmlns="http://www.w3.org/2000/svg">
<path d="M7.00008 1.36942C3.78008 1.36942 1.16675 3.98275 1.16675 7.20275C1.16675 10.4227 3.78008 13.0361 7.00008 13.0361C10.2201 13.0361 12.8334 10.4227 12.8334 7.20275C12.8334 3.98275 10.2201 1.36942 7.00008 1.36942ZM9.35092 7.51192L7.60091 9.26192C7.51341 9.34942 7.40258 9.39025 7.29175 9.39025C7.18092 9.39025 7.07008 9.34942 6.98258 9.26192C6.81342 9.09275 6.81342 8.81275 6.98258 8.64358L7.98591 7.64025H4.95842C4.71925 7.64025 4.52092 7.44192 4.52092 7.20275C4.52092 6.96358 4.71925 6.76525 4.95842 6.76525H7.98591L6.98258 5.76192C6.81342 5.59275 6.81342 5.31275 6.98258 5.14358C7.15175 4.97442 7.43175 4.97442 7.60091 5.14358L9.35092 6.89358C9.52008 7.06275 9.52008 7.34275 9.35092 7.51192Z" fill="white"/>
</svg>
