<svg width="39" height="40" viewBox="0 0 39 40" fill="none" xmlns="http://www.w3.org/2000/svg">
<path d="M35.7013 30.2863C35.7013 30.8713 35.5713 31.4725 35.295 32.0575C35.0188 32.6425 34.6613 33.195 34.19 33.715C33.3938 34.5925 32.5163 35.2263 31.525 35.6325C30.55 36.0388 29.4938 36.25 28.3563 36.25C26.6988 36.25 24.9275 35.86 23.0588 35.0638C21.19 34.2675 19.3213 33.195 17.4688 31.8463C15.6 30.4813 13.8288 28.97 12.1388 27.2963C10.465 25.6063 8.95375 23.8351 7.605 21.9826C6.2725 20.1301 5.2 18.2776 4.42 16.4413C3.64 14.5888 3.25 12.8176 3.25 11.1276C3.25 10.0226 3.445 8.96631 3.835 7.99131C4.225 7.00006 4.8425 6.09006 5.70375 5.27756C6.74375 4.25381 7.88125 3.75006 9.08375 3.75006C9.53875 3.75006 9.99375 3.84756 10.4 4.04256C10.8225 4.23756 11.1963 4.53006 11.4888 4.95256L15.2588 10.2663C15.5513 10.6726 15.7625 11.0463 15.9088 11.4038C16.055 11.7451 16.1363 12.0863 16.1363 12.3951C16.1363 12.7851 16.0225 13.1751 15.795 13.5488C15.5838 13.9226 15.275 14.3126 14.885 14.7026L13.65 15.9863C13.4713 16.1651 13.39 16.3763 13.39 16.6363C13.39 16.7663 13.4063 16.8801 13.4388 17.0101C13.4875 17.1401 13.5363 17.2376 13.5688 17.3351C13.8613 17.8713 14.365 18.5701 15.08 19.4151C15.8113 20.2601 16.5913 21.1213 17.4363 21.9826C18.3138 22.8438 19.1588 23.6401 20.02 24.3713C20.865 25.0863 21.5638 25.5738 22.1163 25.8663C22.1975 25.8988 22.295 25.9476 22.4088 25.9963C22.5388 26.0451 22.6688 26.0613 22.815 26.0613C23.0913 26.0613 23.3025 25.9638 23.4813 25.7851L24.7163 24.5663C25.1225 24.1601 25.5125 23.8513 25.8863 23.6563C26.26 23.4288 26.6338 23.3151 27.04 23.3151C27.3488 23.3151 27.6738 23.3801 28.0313 23.5263C28.3888 23.6726 28.7625 23.8838 29.1688 24.1601L34.5475 27.9788C34.97 28.2713 35.2625 28.6125 35.4413 29.0188C35.6038 29.425 35.7013 29.8313 35.7013 30.2863Z" stroke="#FF6B00" stroke-width="2.4375" stroke-miterlimit="10"/>
</svg>
