<svg width="93" height="93" viewBox="0 0 93 93" fill="none" xmlns="http://www.w3.org/2000/svg">
<path d="M74.8369 46.5031H50.3074L35.9324 29.2531H14.4619C12.1751 29.2554 9.98265 30.1648 8.36564 31.7818C6.74863 33.3988 5.8392 35.5913 5.83691 37.8781V55.1281C5.83844 56.6526 6.44473 58.1143 7.52273 59.1923C8.60074 60.2703 10.0624 60.8766 11.5869 60.8781V81.0031C11.5884 82.5276 12.1947 83.9893 13.2727 85.0673C14.3507 86.1453 15.8124 86.7516 17.3369 86.7531H28.8369C30.3614 86.7516 31.8231 86.1453 32.9011 85.0673C33.9791 83.9893 34.5854 82.5276 34.5869 81.0031V60.8781H28.8369V81.0031H17.3369V55.1281H11.5869V37.8781C11.5869 37.1156 11.8898 36.3843 12.429 35.8452C12.9681 35.306 13.6994 35.0031 14.4619 35.0031H33.2414L47.6164 52.2531H74.8369C75.5994 52.2531 76.3307 52.556 76.8699 53.0951C77.409 53.6343 77.7119 54.3656 77.7119 55.1281V63.7531H71.9619V81.0031H63.3369V63.7531H57.5869V81.0031C57.5884 82.5276 58.1947 83.9893 59.2727 85.0673C60.3507 86.1453 61.8124 86.7516 63.3369 86.7531H71.9619C73.4864 86.7516 74.9481 86.1453 76.0261 85.0673C77.1041 83.9893 77.7104 82.5276 77.7119 81.0031V69.5031C79.2364 69.5016 80.6981 68.8953 81.7761 67.8173C82.8541 66.7393 83.4604 65.2776 83.4619 63.7531V55.1281C83.4596 52.8413 82.5502 50.6488 80.9332 49.0318C79.3162 47.4148 77.1237 46.5054 74.8369 46.5031Z" fill="#FFC399"/>
<path d="M67.6494 43.6281C65.6592 43.6281 63.7138 43.0379 62.059 41.9322C60.4042 40.8266 59.1145 39.255 58.3529 37.4163C57.5913 35.5777 57.392 33.5544 57.7803 31.6025C58.1685 29.6506 59.1269 27.8576 60.5342 26.4503C61.9414 25.0431 63.7344 24.0847 65.6863 23.6964C67.6383 23.3082 69.6615 23.5074 71.5002 24.269C73.3389 25.0307 74.9104 26.3204 76.0161 27.9752C77.1218 29.6299 77.7119 31.5754 77.7119 33.5656C77.7089 36.2334 76.6478 38.7911 74.7613 40.6775C72.8749 42.5639 70.3172 43.625 67.6494 43.6281ZM67.6494 29.2531C66.7965 29.2531 65.9627 29.506 65.2535 29.9799C64.5443 30.4537 63.9916 31.1273 63.6652 31.9153C63.3388 32.7033 63.2534 33.5704 63.4198 34.4069C63.5862 35.2435 63.9969 36.0119 64.6 36.615C65.2031 37.2181 65.9715 37.6288 66.8081 37.7952C67.6446 37.9616 68.5117 37.8762 69.2997 37.5498C70.0877 37.2234 70.7613 36.6707 71.2351 35.9615C71.709 35.2523 71.9619 34.4185 71.9619 33.5656C71.9604 32.4223 71.5056 31.3263 70.6971 30.5179C69.8887 29.7094 68.7927 29.2546 67.6494 29.2531ZM23.0869 26.3781C20.8124 26.3781 18.589 25.7036 16.6979 24.44C14.8067 23.1763 13.3327 21.3803 12.4623 19.2789C11.5919 17.1776 11.3642 14.8653 11.8079 12.6345C12.2516 10.4038 13.3469 8.35466 14.9552 6.74636C16.5635 5.13805 18.6126 4.04278 20.8434 3.59905C23.0742 3.15532 25.3864 3.38306 27.4878 4.25347C29.5891 5.12388 31.3852 6.59786 32.6488 8.48903C33.9125 10.3802 34.5869 12.6036 34.5869 14.8781C34.5839 17.9271 33.3713 20.8504 31.2153 23.0064C29.0593 25.1625 26.136 26.375 23.0869 26.3781ZM23.0869 9.12808C21.9497 9.12808 20.838 9.46532 19.8924 10.0971C18.9468 10.729 18.2098 11.627 17.7746 12.6777C17.3394 13.7283 17.2255 14.8845 17.4474 15.9999C17.6693 17.1152 18.2169 18.1398 19.0211 18.9439C19.8252 19.7481 20.8498 20.2957 21.9651 20.5176C23.0805 20.7395 24.2367 20.6256 25.2873 20.1904C26.338 19.7552 27.2361 19.0182 27.8679 18.0726C28.4997 17.127 28.8369 16.0153 28.8369 14.8781C28.8354 13.3536 28.2291 11.8919 27.1511 10.8139C26.0731 9.7359 24.6114 9.12961 23.0869 9.12808Z" fill="#FFC399"/>
</svg>
