<svg width="21" height="22" viewBox="0 0 21 22" fill="none" xmlns="http://www.w3.org/2000/svg">
<g clip-path="url(#clip0_3543_1262)">
<path d="M20.7525 11.0231C20.7525 5.36357 16.1645 0.775635 10.505 0.775635C4.84551 0.775635 0.257568 5.36357 0.257568 11.0231C0.257568 16.1378 4.00489 20.3773 8.90386 21.1461V13.9852H6.30196V11.0231H8.90386V8.76545C8.90386 6.19718 10.4338 4.77855 12.7745 4.77855C13.8953 4.77855 15.0683 4.97869 15.0683 4.97869V7.50053H13.7762C12.5033 7.50053 12.1062 8.2905 12.1062 9.10169V11.0231H14.9483L14.4939 13.9852H12.1062V21.1461C17.0051 20.3773 20.7525 16.1378 20.7525 11.0231Z" fill="white"/>
</g>
<defs>
<clipPath id="clip0_3543_1262">
<rect width="20.4949" height="20.4949" fill="white" transform="translate(0.257568 0.775635)"/>
</clipPath>
</defs>
</svg>
