<svg width="93" height="93" viewBox="0 0 93 93" fill="none" xmlns="http://www.w3.org/2000/svg">
<path d="M29.4213 57.5243C30.5074 57.5243 31.4185 57.1563 32.1545 56.4203C32.8905 55.6843 33.2572 54.7745 33.2546 53.691C33.2546 52.6049 32.8866 51.6938 32.1506 50.9578C31.4146 50.2218 30.5049 49.8551 29.4213 49.8576C28.3352 49.8576 27.4241 50.2256 26.6881 50.9616C25.9521 51.6976 25.5854 52.6074 25.588 53.691C25.588 54.7771 25.956 55.6881 26.692 56.4241C27.428 57.1601 28.3378 57.5269 29.4213 57.5243ZM35.1713 46.0243C36.2574 46.0243 37.1685 45.6563 37.9045 44.9203C38.6405 44.1843 39.0072 43.2745 39.0046 42.191C39.0046 41.1049 38.6366 40.1938 37.9006 39.4578C37.1646 38.7218 36.2549 38.3551 35.1713 38.3576C34.0852 38.3576 33.1741 38.7256 32.4381 39.4616C31.7021 40.1976 31.3354 41.1074 31.338 42.191C31.338 43.2771 31.706 44.1881 32.442 44.9241C33.178 45.6601 34.0878 46.0269 35.1713 46.0243ZM35.1713 69.0243C36.2574 69.0243 37.1685 68.6563 37.9045 67.9203C38.6405 67.1843 39.0072 66.2745 39.0046 65.191C39.0046 64.1049 38.6366 63.1938 37.9006 62.4578C37.1646 61.7218 36.2549 61.3551 35.1713 61.3576C34.0852 61.3576 33.1741 61.7256 32.4381 62.4616C31.7021 63.1976 31.3354 64.1074 31.338 65.191C31.338 66.2771 31.706 67.1881 32.442 67.9241C33.178 68.6601 34.0878 69.0269 35.1713 69.0243ZM40.9213 57.5243C42.0074 57.5243 42.9185 57.1563 43.6545 56.4203C44.3905 55.6843 44.7572 54.7745 44.7546 53.691C44.7546 52.6049 44.3866 51.6938 43.6506 50.9578C42.9146 50.2218 42.0049 49.8551 40.9213 49.8576C39.8352 49.8576 38.9241 50.2256 38.1881 50.9616C37.4521 51.6976 37.0854 52.6074 37.088 53.691C37.088 54.7771 37.456 55.6881 38.192 56.4241C38.928 57.1601 39.8378 57.5269 40.9213 57.5243ZM40.9213 34.5243C42.0074 34.5243 42.9185 34.1563 43.6545 33.4203C44.3905 32.6843 44.7572 31.7745 44.7546 30.691C44.7546 29.6049 44.3866 28.6938 43.6506 27.9578C42.9146 27.2218 42.0049 26.8551 40.9213 26.8576C39.8352 26.8576 38.9241 27.2256 38.1881 27.9616C37.4521 28.6976 37.0854 29.6074 37.088 30.691C37.088 31.7771 37.456 32.6881 38.192 33.4241C38.928 34.1601 39.8378 34.5269 40.9213 34.5243ZM46.6713 46.0243C47.7574 46.0243 48.6685 45.6563 49.4045 44.9203C50.1405 44.1843 50.5072 43.2745 50.5046 42.191C50.5046 41.1049 50.1366 40.1938 49.4006 39.4578C48.6646 38.7218 47.7549 38.3551 46.6713 38.3576C45.5852 38.3576 44.6741 38.7256 43.9381 39.4616C43.2021 40.1976 42.8354 41.1074 42.838 42.191C42.838 43.2771 43.206 44.1881 43.942 44.9241C44.678 45.6601 45.5877 46.0269 46.6713 46.0243ZM46.6713 69.0243C47.7574 69.0243 48.6685 68.6563 49.4045 67.9203C50.1405 67.1843 50.5072 66.2745 50.5046 65.191C50.5046 64.1049 50.1366 63.1938 49.4006 62.4578C48.6646 61.7218 47.7549 61.3551 46.6713 61.3576C45.5852 61.3576 44.6741 61.7256 43.9381 62.4616C43.2021 63.1976 42.8354 64.1074 42.838 65.191C42.838 66.2771 43.206 67.1881 43.942 67.9241C44.678 68.6601 45.5877 69.0269 46.6713 69.0243ZM52.4213 57.5243C53.5074 57.5243 54.4185 57.1563 55.1545 56.4203C55.8905 55.6843 56.2572 54.7745 56.2546 53.691C56.2546 52.6049 55.8866 51.6938 55.1506 50.9578C54.4146 50.2218 53.5049 49.8551 52.4213 49.8576C51.3352 49.8576 50.4241 50.2256 49.6881 50.9616C48.9521 51.6976 48.5854 52.6074 48.588 53.691C48.588 54.7771 48.956 55.6881 49.692 56.4241C50.428 57.1601 51.3377 57.5269 52.4213 57.5243ZM52.4213 34.5243C53.5074 34.5243 54.4185 34.1563 55.1545 33.4203C55.8905 32.6843 56.2572 31.7745 56.2546 30.691C56.2546 29.6049 55.8866 28.6938 55.1506 27.9578C54.4146 27.2218 53.5049 26.8551 52.4213 26.8576C51.3352 26.8576 50.4241 27.2256 49.6881 27.9616C48.9521 28.6976 48.5854 29.6074 48.588 30.691C48.588 31.7771 48.956 32.6881 49.692 33.4241C50.428 34.1601 51.3377 34.5269 52.4213 34.5243ZM58.1713 46.0243C59.2574 46.0243 60.1685 45.6563 60.9045 44.9203C61.6405 44.1843 62.0072 43.2745 62.0046 42.191C62.0046 41.1049 61.6366 40.1938 60.9006 39.4578C60.1646 38.7218 59.2549 38.3551 58.1713 38.3576C57.0852 38.3576 56.1741 38.7256 55.4381 39.4616C54.7021 40.1976 54.3354 41.1074 54.338 42.191C54.338 43.2771 54.706 44.1881 55.442 44.9241C56.178 45.6601 57.0877 46.0269 58.1713 46.0243ZM58.1713 69.0243C59.2574 69.0243 60.1685 68.6563 60.9045 67.9203C61.6405 67.1843 62.0072 66.2745 62.0046 65.191C62.0046 64.1049 61.6366 63.1938 60.9006 62.4578C60.1646 61.7218 59.2549 61.3551 58.1713 61.3576C57.0852 61.3576 56.1741 61.7256 55.4381 62.4616C54.7021 63.1976 54.3354 64.1074 54.338 65.191C54.338 66.2771 54.706 67.1881 55.442 67.9241C56.178 68.6601 57.0877 69.0269 58.1713 69.0243ZM63.9213 57.5243C65.0074 57.5243 65.9185 57.1563 66.6545 56.4203C67.3905 55.6843 67.7572 54.7745 67.7546 53.691C67.7546 52.6049 67.3866 51.6938 66.6506 50.9578C65.9146 50.2218 65.0049 49.8551 63.9213 49.8576C62.8352 49.8576 61.9241 50.2256 61.1881 50.9616C60.4521 51.6976 60.0854 52.6074 60.088 53.691C60.088 54.7771 60.456 55.6881 61.192 56.4241C61.928 57.1601 62.8377 57.5269 63.9213 57.5243ZM46.6713 84.3576C37.9185 84.3576 30.6186 81.3549 24.7715 75.3493C18.9244 69.3438 16.0021 61.8688 16.0046 52.9243C16.0046 46.5354 18.5449 39.5869 23.6253 32.0786C28.7058 24.5704 36.3877 16.4412 46.6713 7.69098C56.9574 16.4438 64.6407 24.5743 69.7211 32.0825C74.8016 39.5907 77.3405 46.538 77.338 52.9243C77.338 61.8688 74.4144 69.3438 68.5673 75.3493C62.7202 81.3549 55.4215 84.3576 46.6713 84.3576Z" fill="#FFC399"/>
</svg>
