<svg width="22" height="22" viewBox="0 0 22 22" fill="none" xmlns="http://www.w3.org/2000/svg">
<g clip-path="url(#clip0_3551_1265)">
<path d="M10.9999 2.62098C13.7379 2.62098 14.0621 2.63298 15.1389 2.68102C16.1396 2.72505 16.68 2.89317 17.0403 3.03328C17.5166 3.21741 17.8609 3.44157 18.2171 3.79783C18.5774 4.15809 18.7976 4.49834 18.9817 4.97469C19.1218 5.33495 19.2899 5.87934 19.3339 6.87607C19.382 7.95686 19.394 8.28109 19.394 11.0151C19.394 13.7531 19.382 14.0773 19.3339 15.1541C19.2899 16.1548 19.1218 16.6952 18.9817 17.0555C18.7976 17.5318 18.5734 17.8761 18.2171 18.2323C17.8569 18.5926 17.5166 18.8127 17.0403 18.9969C16.68 19.137 16.1356 19.3051 15.1389 19.3491C14.0581 19.3972 13.7339 19.4092 10.9999 19.4092C8.2619 19.4092 7.93766 19.3972 6.86088 19.3491C5.86015 19.3051 5.31976 19.137 4.9595 18.9969C4.48315 18.8127 4.1389 18.5886 3.78264 18.2323C3.42238 17.8721 3.20222 17.5318 3.01809 17.0555C2.87799 16.6952 2.70986 16.1508 2.66583 15.1541C2.6178 14.0733 2.60579 13.7491 2.60579 11.0151C2.60579 8.27709 2.6178 7.95285 2.66583 6.87607C2.70986 5.87534 2.87799 5.33495 3.01809 4.97469C3.20222 4.49834 3.42638 4.15409 3.78264 3.79783C4.14291 3.43757 4.48315 3.21741 4.9595 3.03328C5.31976 2.89317 5.86416 2.72505 6.86088 2.68102C7.93766 2.63298 8.2619 2.62098 10.9999 2.62098ZM10.9999 0.775635C8.21787 0.775635 7.86961 0.787643 6.77682 0.835678C5.68803 0.883713 4.93948 1.05984 4.29101 1.31202C3.61452 1.57622 3.04211 1.92447 2.47369 2.49689C1.90128 3.0653 1.55302 3.63772 1.28883 4.3102C1.03665 4.96268 0.86052 5.70722 0.812485 6.79601C0.76445 7.89281 0.752441 8.24106 0.752441 11.0231C0.752441 13.8051 0.76445 14.1534 0.812485 15.2462C0.86052 16.3349 1.03665 17.0835 1.28883 17.732C1.55302 18.4085 1.90128 18.9809 2.47369 19.5493C3.04211 20.1177 3.61452 20.47 4.28701 20.7301C4.93948 20.9823 5.68403 21.1585 6.77282 21.2065C7.86561 21.2545 8.21386 21.2665 10.9959 21.2665C13.7779 21.2665 14.1262 21.2545 15.219 21.2065C16.3077 21.1585 17.0563 20.9823 17.7048 20.7301C18.3773 20.47 18.9497 20.1177 19.5181 19.5493C20.0865 18.9809 20.4387 18.4085 20.6989 17.736C20.9511 17.0835 21.1273 16.3389 21.1753 15.2502C21.2233 14.1574 21.2353 13.8091 21.2353 11.0271C21.2353 8.24507 21.2233 7.89681 21.1753 6.80402C21.1273 5.71523 20.9511 4.96668 20.6989 4.31821C20.4468 3.63772 20.0985 3.0653 19.5261 2.49689C18.9577 1.92847 18.3853 1.57622 17.7128 1.31603C17.0603 1.06384 16.3158 0.887716 15.227 0.839681C14.1302 0.787643 13.7819 0.775635 10.9999 0.775635Z" fill="white"/>
<path d="M10.9999 5.75928C8.0938 5.75928 5.73608 8.11699 5.73608 11.0231C5.73608 13.9292 8.0938 16.2869 10.9999 16.2869C13.906 16.2869 16.2637 13.9292 16.2637 11.0231C16.2637 8.11699 13.906 5.75928 10.9999 5.75928ZM10.9999 14.4376C9.11454 14.4376 7.58543 12.9085 7.58543 11.0231C7.58543 9.13773 9.11454 7.60862 10.9999 7.60862C12.8853 7.60862 14.4144 9.13773 14.4144 11.0231C14.4144 12.9085 12.8853 14.4376 10.9999 14.4376Z" fill="white"/>
<path d="M17.7007 5.55116C17.7007 6.23166 17.1483 6.78006 16.4718 6.78006C15.7913 6.78006 15.2429 6.22766 15.2429 5.55116C15.2429 4.87067 15.7953 4.32227 16.4718 4.32227C17.1483 4.32227 17.7007 4.87467 17.7007 5.55116Z" fill="white"/>
</g>
<defs>
<clipPath id="clip0_3551_1265">
<rect width="20.4949" height="20.4949" fill="white" transform="translate(0.752441 0.775635)"/>
</clipPath>
</defs>
</svg>
