<svg width="35" height="36" viewBox="0 0 35 36" fill="none" xmlns="http://www.w3.org/2000/svg">
<path d="M17.5003 3.41667C21.4626 3.41667 21.957 3.43126 23.5116 3.50417C25.0647 3.57709 26.122 3.82063 27.0524 4.1823C28.0149 4.55271 28.8257 5.05438 29.6366 5.86375C30.3781 6.59277 30.9519 7.47461 31.318 8.44792C31.6782 9.37688 31.9232 10.4356 31.9962 11.9888C32.0647 13.5433 32.0837 14.0377 32.0837 18C32.0837 21.9623 32.0691 22.4567 31.9962 24.0113C31.9232 25.5644 31.6782 26.6217 31.318 27.5521C30.953 28.5259 30.379 29.408 29.6366 30.1363C28.9074 30.8776 28.0256 31.4513 27.0524 31.8177C26.1234 32.1779 25.0647 32.4229 23.5116 32.4958C21.957 32.5644 21.4626 32.5833 17.5003 32.5833C13.538 32.5833 13.0437 32.5688 11.4891 32.4958C9.93595 32.4229 8.87866 32.1779 7.94824 31.8177C6.97455 31.4524 6.09255 30.8785 5.36408 30.1363C4.62238 29.4074 4.04856 28.5255 3.68262 27.5521C3.32095 26.6231 3.07741 25.5644 3.00449 24.0113C2.93595 22.4567 2.91699 21.9623 2.91699 18C2.91699 14.0377 2.93158 13.5433 3.00449 11.9888C3.07741 10.4342 3.32095 9.37834 3.68262 8.44792C4.04754 7.47402 4.6215 6.59193 5.36408 5.86375C6.09276 5.1218 6.9747 4.54794 7.94824 4.1823C8.87866 3.82063 9.93449 3.57709 11.4891 3.50417C13.0437 3.43563 13.538 3.41667 17.5003 3.41667ZM17.5003 10.7083C15.5665 10.7083 13.7118 11.4766 12.3443 12.844C10.9769 14.2115 10.2087 16.0661 10.2087 18C10.2087 19.9339 10.9769 21.7885 12.3443 23.156C13.7118 24.5234 15.5665 25.2917 17.5003 25.2917C19.4342 25.2917 21.2889 24.5234 22.6563 23.156C24.0238 21.7885 24.792 19.9339 24.792 18C24.792 16.0661 24.0238 14.2115 22.6563 12.844C21.2889 11.4766 19.4342 10.7083 17.5003 10.7083ZM26.9795 10.3438C26.9795 9.86029 26.7874 9.39662 26.4456 9.05476C26.1037 8.71289 25.64 8.52084 25.1566 8.52084C24.6731 8.52084 24.2094 8.71289 23.8676 9.05476C23.5257 9.39662 23.3337 9.86029 23.3337 10.3438C23.3337 10.8272 23.5257 11.2909 23.8676 11.6328C24.2094 11.9746 24.6731 12.1667 25.1566 12.1667C25.64 12.1667 26.1037 11.9746 26.4456 11.6328C26.7874 11.2909 26.9795 10.8272 26.9795 10.3438ZM17.5003 13.625C18.6606 13.625 19.7734 14.0859 20.5939 14.9064C21.4144 15.7269 21.8753 16.8397 21.8753 18C21.8753 19.1603 21.4144 20.2731 20.5939 21.0936C19.7734 21.9141 18.6606 22.375 17.5003 22.375C16.34 22.375 15.2272 21.9141 14.4067 21.0936C13.5863 20.2731 13.1253 19.1603 13.1253 18C13.1253 16.8397 13.5863 15.7269 14.4067 14.9064C15.2272 14.0859 16.34 13.625 17.5003 13.625Z" fill="#FF6B00"/>
</svg>
