<svg width="35" height="36" viewBox="0 0 35 36" fill="none" xmlns="http://www.w3.org/2000/svg">
<path d="M27.7083 4.875C28.4819 4.875 29.2237 5.18229 29.7707 5.72927C30.3177 6.27625 30.625 7.01812 30.625 7.79167V28.2083C30.625 28.9819 30.3177 29.7237 29.7707 30.2707C29.2237 30.8177 28.4819 31.125 27.7083 31.125H7.29167C6.51812 31.125 5.77625 30.8177 5.22927 30.2707C4.68229 29.7237 4.375 28.9819 4.375 28.2083V7.79167C4.375 7.01812 4.68229 6.27625 5.22927 5.72927C5.77625 5.18229 6.51812 4.875 7.29167 4.875H27.7083ZM26.9792 27.4792V19.75C26.9792 18.4891 26.4783 17.2799 25.5867 16.3883C24.6951 15.4967 23.4859 14.9958 22.225 14.9958C20.9854 14.9958 19.5417 15.7542 18.8417 16.8917V15.2729H14.7729V27.4792H18.8417V20.2896C18.8417 19.1667 19.7458 18.2479 20.8688 18.2479C21.4102 18.2479 21.9295 18.463 22.3124 18.8459C22.6953 19.2288 22.9104 19.7481 22.9104 20.2896V27.4792H26.9792ZM10.0333 12.9833C10.6831 12.9833 11.3063 12.7252 11.7657 12.2657C12.2252 11.8063 12.4833 11.1831 12.4833 10.5333C12.4833 9.17708 11.3896 8.06875 10.0333 8.06875C9.37969 8.06875 8.75281 8.32841 8.29061 8.79061C7.82841 9.25281 7.56875 9.87969 7.56875 10.5333C7.56875 11.8896 8.67708 12.9833 10.0333 12.9833ZM12.0604 27.4792V15.2729H8.02083V27.4792H12.0604Z" fill="#FF6B00"/>
</svg>
