<svg width="93" height="93" viewBox="0 0 93 93" fill="none" xmlns="http://www.w3.org/2000/svg">
<path d="M47.1061 72.8576C47.8728 72.7938 48.5283 72.4896 49.0726 71.9453C49.6169 71.401 49.8878 70.7468 49.8853 69.9826C49.8853 69.0882 49.5978 68.3688 49.0228 67.8245C48.4478 67.2801 47.713 67.0412 46.8186 67.1076C44.1991 67.2993 41.42 66.5799 38.4811 64.9495C35.5422 63.319 33.6894 60.3648 32.9228 56.0868C32.795 55.384 32.4602 54.809 31.9184 54.3618C31.3766 53.9146 30.7531 53.691 30.0478 53.691C29.1533 53.691 28.4186 54.027 27.8436 54.6991C27.2686 55.3713 27.0769 56.1533 27.2686 57.0451C28.3547 62.859 30.9103 67.0118 34.9353 69.5035C38.9603 71.9951 43.0172 73.1132 47.1061 72.8576ZM46.0519 84.3576C37.2991 84.3576 29.9992 81.3549 24.1521 75.3493C18.305 69.3438 15.3827 61.8688 15.3853 52.9243C15.3853 46.5354 17.9255 39.5869 23.0059 32.0786C28.0864 24.5704 35.7684 16.4412 46.0519 7.69098C56.338 16.4438 64.0213 24.5743 69.1018 32.0825C74.1822 39.5907 76.7211 46.538 76.7186 52.9243C76.7186 61.8688 73.795 69.3438 67.9479 75.3493C62.1008 81.3549 54.8021 84.3576 46.0519 84.3576ZM46.0519 76.691C52.6964 76.691 58.1908 74.4383 62.5353 69.9328C66.8797 65.4274 69.0519 59.7579 69.0519 52.9243C69.0519 48.2604 67.1186 42.9896 63.2521 37.1118C59.3855 31.234 53.6521 24.8132 46.0519 17.8493C38.4491 24.8132 32.7158 31.234 28.8518 37.1118C24.9878 42.9896 23.0545 48.2604 23.0519 52.9243C23.0519 59.7604 25.2241 65.4312 29.5686 69.9366C33.913 74.4421 39.4075 76.6935 46.0519 76.691Z" fill="#FFC399"/>
</svg>
