<svg width="20" height="21" viewBox="0 0 20 21" fill="none" xmlns="http://www.w3.org/2000/svg">
<path d="M10.1334 9.62922C10.05 9.62088 9.95005 9.62088 9.85838 9.62922C7.87505 9.56255 6.30005 7.93755 6.30005 5.93755C6.30005 3.89588 7.95005 2.23755 10 2.23755C12.0417 2.23755 13.7 3.89588 13.7 5.93755C13.6917 7.93755 12.1167 9.56255 10.1334 9.62922Z" stroke="#666666" stroke-width="1.25" stroke-linecap="round" stroke-linejoin="round"/>
<path d="M5.96672 12.7041C3.95006 14.0541 3.95006 16.2541 5.96672 17.5957C8.25839 19.1291 12.0167 19.1291 14.3084 17.5957C16.3251 16.2457 16.3251 14.0457 14.3084 12.7041C12.0251 11.1791 8.26672 11.1791 5.96672 12.7041Z" stroke="#666666" stroke-width="1.25" stroke-linecap="round" stroke-linejoin="round"/>
</svg>
