<svg width="93" height="93" viewBox="0 0 93 93" fill="none" xmlns="http://www.w3.org/2000/svg">
<path d="M61.8809 24.2276C61.8805 26.5466 60.9635 28.7715 59.3296 30.4172C55.568 34.2096 51.9182 38.1638 48.0141 41.8175C47.5782 42.2145 47.0065 42.4291 46.417 42.4169C45.8275 42.4048 45.2652 42.1667 44.8461 41.7519L33.6 30.4211C31.9652 28.7743 31.0479 26.548 31.0479 24.2276C31.0479 21.9072 31.9652 19.6809 33.6 18.0342C34.4157 17.2124 35.386 16.5602 36.4549 16.1152C37.5238 15.6701 38.6703 15.441 39.8281 15.441C40.986 15.441 42.1324 15.6701 43.2013 16.1152C44.2703 16.5602 45.2405 17.2124 46.0563 18.0342L46.4648 18.4466L46.8733 18.0342C48.0977 16.7965 49.6628 15.9512 51.3691 15.6058C53.0755 15.2605 54.8461 15.4307 56.4554 16.0949C58.0648 16.759 59.4401 17.887 60.4062 19.3353C61.3724 20.7836 61.8858 22.4866 61.8809 24.2276Z" stroke="#FFC399" stroke-width="5.78106" stroke-linejoin="round"/>
<path d="M69.5894 77.1051L84.3272 62.3672C84.761 61.934 85.005 61.3462 85.0055 60.7331V40.4917C85.0055 38.9585 84.3964 37.488 83.3123 36.4039C82.2281 35.3197 80.7577 34.7106 79.2245 34.7106C77.6912 34.7106 76.2208 35.3197 75.1366 36.4039C74.0525 37.488 73.4434 38.9585 73.4434 40.4917V57.8349" stroke="#FFC399" stroke-width="5.78106" stroke-linecap="round" stroke-linejoin="round"/>
<path d="M69.5892 61.6889L72.896 58.3821C73.0697 58.2087 73.2075 58.0026 73.3014 57.7757C73.3953 57.5489 73.4435 57.3057 73.4432 57.0602C73.4427 56.7136 73.3458 56.374 73.1634 56.0793C72.981 55.7847 72.7203 55.5465 72.4103 55.3914L70.703 54.5397C69.2565 53.8164 67.6192 53.5665 66.0229 53.8252C64.4265 54.0838 62.9519 54.8381 61.8079 55.9811L58.3585 59.4304C56.9129 60.8756 56.1005 62.8359 56.1001 64.8801V77.1051M23.3407 77.1051L8.60287 62.3672C8.16908 61.934 7.9251 61.3462 7.92456 60.7331V40.4917C7.92456 38.9585 8.53363 37.488 9.61779 36.4039C10.702 35.3197 12.1724 34.7106 13.7056 34.7106C15.2389 34.7106 16.7093 35.3197 17.7934 36.4039C18.8776 37.488 19.4867 38.9585 19.4867 40.4917V57.8349" stroke="#FFC399" stroke-width="5.78106" stroke-linecap="round" stroke-linejoin="round"/>
<path d="M23.3409 61.6888L20.0341 58.3821C19.8605 58.2085 19.7229 58.0024 19.629 57.7755C19.5351 57.5487 19.4868 57.3056 19.4868 57.0601C19.4868 56.3549 19.8876 55.7112 20.5197 55.3913L22.227 54.5396C23.6735 53.8164 25.3108 53.5664 26.9072 53.8251C28.5035 54.0838 29.9781 54.838 31.1222 55.981L34.5715 59.4304C36.0172 60.8756 36.8296 62.8358 36.83 64.88V77.105" stroke="#FFC399" stroke-width="5.78106" stroke-linecap="round" stroke-linejoin="round"/>
</svg>
