<svg width="33" height="33" viewBox="0 0 33 33" fill="none" xmlns="http://www.w3.org/2000/svg">
<path d="M14.3782 18.38C14.9248 18.9 14.9248 19.7533 14.3782 20.2733C13.8582 20.7933 13.0048 20.7933 12.4848 20.2733C11.236 19.0226 10.5346 17.3274 10.5346 15.56C10.5346 13.7925 11.236 12.0974 12.4848 10.8466L17.2048 6.12665C18.4555 4.87782 20.1507 4.17639 21.9182 4.17639C23.6856 4.17639 25.3808 4.87782 26.6315 6.12665C27.8803 7.37735 28.5817 9.07254 28.5817 10.84C28.5817 12.6074 27.8803 14.3026 26.6315 15.5533L24.6448 17.54C24.6582 16.4466 24.4848 15.3533 24.1115 14.3133L24.7382 13.6733C25.1119 13.3036 25.4087 12.8634 25.6112 12.3782C25.8137 11.893 25.918 11.3724 25.918 10.8466C25.918 10.3209 25.8137 9.80034 25.6112 9.31514C25.4087 8.82994 25.1119 8.38973 24.7382 8.01998C24.3684 7.6462 23.9282 7.34946 23.443 7.14694C22.9578 6.94442 22.4373 6.84014 21.9115 6.84014C21.3857 6.84014 20.8652 6.94442 20.38 7.14694C19.8948 7.34946 19.4546 7.6462 19.0848 8.01998L14.3782 12.7266C14.0044 13.0964 13.7076 13.5366 13.5051 14.0218C13.3026 14.507 13.1983 15.0275 13.1983 15.5533C13.1983 16.0791 13.3026 16.5996 13.5051 17.0848C13.7076 17.57 14.0044 18.0102 14.3782 18.38ZM18.1382 12.7266C18.6582 12.2066 19.5115 12.2066 20.0315 12.7266C21.2803 13.9774 21.9818 15.6725 21.9818 17.44C21.9818 19.2074 21.2803 20.9026 20.0315 22.1533L15.3115 26.8733C14.0608 28.1221 12.3656 28.8236 10.5982 28.8236C8.83072 28.8236 7.13553 28.1221 5.88483 26.8733C4.636 25.6226 3.93457 23.9274 3.93457 22.16C3.93457 20.3925 4.636 18.6974 5.88483 17.4466L7.87149 15.46C7.85816 16.5533 8.03149 17.6466 8.40483 18.7L7.77816 19.3266C7.40438 19.6964 7.10764 20.1366 6.90512 20.6218C6.7026 21.107 6.59832 21.6275 6.59832 22.1533C6.59832 22.6791 6.7026 23.1996 6.90512 23.6848C7.10764 24.17 7.40438 24.6102 7.77816 24.98C8.14791 25.3538 8.58812 25.6505 9.07332 25.853C9.55852 26.0555 10.0791 26.1598 10.6048 26.1598C11.1306 26.1598 11.6511 26.0555 12.1363 25.853C12.6215 25.6505 13.0617 25.3538 13.4315 24.98L18.1382 20.2733C18.5119 19.9036 18.8087 19.4634 19.0112 18.9782C19.2137 18.493 19.318 17.9724 19.318 17.4466C19.318 16.9209 19.2137 16.4003 19.0112 15.9151C18.8087 15.4299 18.5119 14.9897 18.1382 14.62C18.0087 14.4986 17.9054 14.352 17.8349 14.1892C17.7643 14.0264 17.7279 13.8508 17.7279 13.6733C17.7279 13.4959 17.7643 13.3203 17.8349 13.1574C17.9054 12.9946 18.0087 12.848 18.1382 12.7266Z" fill="white"/>
</svg>
