<svg width="19" height="20" viewBox="0 0 19 20" fill="none" xmlns="http://www.w3.org/2000/svg">
<path d="M16.1191 3.61C15.2898 2.77234 14.302 2.10819 13.2134 1.65628C12.1248 1.20436 10.9571 0.973731 9.77837 0.977837C4.83967 0.977837 0.814549 5.00296 0.814549 9.94166C0.814549 11.5246 1.23063 13.0623 2.00852 14.419L0.742188 19.0683L5.49093 17.82C6.80249 18.5346 8.27686 18.9145 9.77837 18.9145C14.7171 18.9145 18.7422 14.8894 18.7422 9.9507C18.7422 7.55372 17.8105 5.30145 16.1191 3.61ZM9.77837 17.3949C8.43967 17.3949 7.12812 17.0331 5.97937 16.3547L5.70802 16.1919L2.88591 16.9336L3.63666 14.1839L3.45576 13.9035C2.71201 12.7158 2.31709 11.343 2.31606 9.94166C2.31606 5.83512 5.66279 2.48839 9.76932 2.48839C11.7593 2.48839 13.6316 3.26628 15.0336 4.67733C15.7278 5.36836 16.278 6.19029 16.6522 7.09551C17.0264 8.00072 17.2172 8.9712 17.2135 9.9507C17.2316 14.0572 13.8849 17.3949 9.77837 17.3949ZM13.8668 11.8231C13.6407 11.7145 12.5372 11.1718 12.3382 11.0904C12.1301 11.018 11.9854 10.9819 11.8316 11.1989C11.6779 11.4251 11.2527 11.9316 11.1261 12.0763C10.9995 12.2301 10.8638 12.2482 10.6377 12.1306C10.4115 12.0221 9.68791 11.7778 8.83766 11.018C8.16832 10.4211 7.7251 9.68839 7.58942 9.46226C7.46279 9.23613 7.57133 9.11854 7.68892 9.00095C7.78842 8.90145 7.91505 8.73864 8.02359 8.61201C8.13214 8.48537 8.17736 8.38588 8.24972 8.24115C8.32209 8.08738 8.28591 7.96075 8.23163 7.85221C8.17736 7.74367 7.7251 6.64015 7.5442 6.18789C7.36329 5.75372 7.17334 5.80799 7.03766 5.79894H6.60349C6.44972 5.79894 6.21455 5.85321 6.00651 6.07934C5.80751 6.30547 5.22862 6.84819 5.22862 7.95171C5.22862 9.05522 6.03364 10.1226 6.14219 10.2673C6.25073 10.4211 7.7251 12.6824 9.96832 13.6502C10.502 13.8854 10.9181 14.0211 11.2437 14.1206C11.7774 14.2924 12.2658 14.2653 12.6547 14.211C13.0889 14.1477 13.9844 13.6683 14.1653 13.1437C14.3553 12.619 14.3553 12.1758 14.2919 12.0763C14.2286 11.9768 14.0929 11.9316 13.8668 11.8231Z" fill="white"/>
</svg>
