<svg width="23" height="16" viewBox="0 0 23 16" fill="none" xmlns="http://www.w3.org/2000/svg">
<path d="M9.04731 11.323L14.7563 8.023L9.04731 4.723V11.323ZM21.7633 2.71C21.9063 3.227 22.0053 3.92 22.0713 4.8C22.1483 5.68 22.1813 6.439 22.1813 7.099L22.2473 8.023C22.2473 10.432 22.0713 12.203 21.7633 13.336C21.4883 14.326 20.8503 14.964 19.8603 15.239C19.3433 15.382 18.3973 15.481 16.9453 15.547C15.5153 15.624 14.2063 15.657 12.9963 15.657L11.2473 15.723C6.63831 15.723 3.76731 15.547 2.63431 15.239C1.64431 14.964 1.00631 14.326 0.731315 13.336C0.588315 12.819 0.489315 12.126 0.423315 11.246C0.346315 10.366 0.313314 9.607 0.313314 8.947L0.247314 8.023C0.247314 5.614 0.423315 3.843 0.731315 2.71C1.00631 1.72 1.64431 1.082 2.63431 0.806998C3.15131 0.663998 4.09731 0.564998 5.54931 0.498998C6.97931 0.421998 8.28831 0.388998 9.49831 0.388998L11.2473 0.322998C15.8563 0.322998 18.7273 0.498998 19.8603 0.806998C20.8503 1.082 21.4883 1.72 21.7633 2.71Z" fill="white"/>
</svg>
