<svg width="35" height="36" viewBox="0 0 35 36" fill="none" xmlns="http://www.w3.org/2000/svg">
<path d="M14.5837 22.375L22.1524 18L14.5837 13.625V22.375ZM31.442 10.9563C31.6316 11.6417 31.7628 12.5604 31.8503 13.7271C31.9524 14.8938 31.9962 15.9 31.9962 16.775L32.0837 18C32.0837 21.1938 31.8503 23.5417 31.442 25.0438C31.0774 26.3563 30.2316 27.2021 28.9191 27.5667C28.2337 27.7563 26.9795 27.8875 25.0545 27.975C23.1587 28.0771 21.4232 28.1208 19.8191 28.1208L17.5003 28.2083C11.3899 28.2083 7.58366 27.975 6.08158 27.5667C4.76908 27.2021 3.92324 26.3563 3.55866 25.0438C3.36908 24.3583 3.23783 23.4396 3.15033 22.2729C3.04824 21.1063 3.00449 20.1 3.00449 19.225L2.91699 18C2.91699 14.8063 3.15033 12.4583 3.55866 10.9563C3.92324 9.64376 4.76908 8.79792 6.08158 8.43334C6.76699 8.24376 8.02116 8.1125 9.94616 8.025C11.842 7.92292 13.5774 7.87917 15.1816 7.87917L17.5003 7.79167C23.6107 7.79167 27.417 8.02501 28.9191 8.43334C30.2316 8.79792 31.0774 9.64376 31.442 10.9563Z" fill="#FF6B00"/>
</svg>
