<svg width="16" height="16" viewBox="0 0 16 16" fill="none" xmlns="http://www.w3.org/2000/svg">
<path d="M13.5744 2.57045C12.8925 1.88172 12.0804 1.33563 11.1853 0.96406C10.2902 0.592486 9.33005 0.402857 8.3609 0.406233C4.3002 0.406233 0.99065 3.71578 0.99065 7.77648C0.99065 9.07799 1.33276 10.3423 1.97236 11.4579L0.931152 15.2806L4.83567 14.2543C5.91407 14.8418 7.12633 15.1542 8.3609 15.1542C12.4216 15.1542 15.7312 11.8446 15.7312 7.78392C15.7312 5.81307 14.9651 3.96121 13.5744 2.57045ZM8.3609 13.9047C7.2602 13.9047 6.18181 13.6072 5.23728 13.0494L5.01417 12.9156L2.69377 13.5254L3.31105 11.2645L3.16231 11.034C2.55078 10.0574 2.22607 8.92868 2.22522 7.77648C2.22522 4.4 4.97698 1.64824 8.35346 1.64824C9.98964 1.64824 11.5291 2.28784 12.6819 3.44804C13.2527 4.01622 13.705 4.69203 14.0127 5.43632C14.3204 6.1806 14.4773 6.97855 14.4743 7.78392C14.4891 11.1604 11.7374 13.9047 8.3609 13.9047ZM11.7225 9.32342C11.5366 9.23417 10.6292 8.78794 10.4656 8.72101C10.2946 8.66151 10.1756 8.63176 10.0491 8.81025C9.92271 8.99618 9.57316 9.41266 9.46904 9.53166C9.36492 9.65809 9.25336 9.67297 9.06743 9.57628C8.8815 9.48704 8.28653 9.28623 7.58743 8.66151C7.03708 8.17065 6.67266 7.56824 6.5611 7.38231C6.45698 7.19638 6.54623 7.0997 6.64291 7.00302C6.72472 6.92121 6.82884 6.78734 6.91809 6.68322C7.00733 6.5791 7.04452 6.49729 7.10402 6.37829C7.16351 6.25186 7.13376 6.14774 7.08914 6.05849C7.04452 5.96925 6.67266 5.06191 6.52392 4.69005C6.37517 4.33307 6.21899 4.37769 6.10743 4.37025H5.75045C5.62402 4.37025 5.43065 4.41488 5.25959 4.60081C5.09598 4.78674 4.62 5.23297 4.62 6.1403C4.62 7.04764 5.28191 7.92523 5.37115 8.04422C5.4604 8.17065 6.67266 10.03 8.51708 10.8257C8.95588 11.0191 9.29799 11.1307 9.56572 11.2125C10.0045 11.3538 10.4061 11.3315 10.7259 11.2868C11.0829 11.2348 11.8192 10.8406 11.9679 10.4092C12.1241 9.97789 12.1241 9.61347 12.0721 9.53166C12.02 9.44985 11.9084 9.41266 11.7225 9.32342Z" fill="#333333"/>
</svg>
